#Comment line ignore any data following # character 
#Hierarchical Translation and Rotation (.htr) file 
[Header]	
#Header keywords are followed by a single value 
FileType HTR		#Single word string
DataType HTRS		#Translation followed by rotation and scale data
FileVersion 1		#integer
NumSegments 64		#integer
NumFrames 3		#integer
DataFrameRate 30		#integer, data frame rate in this file
EulerRotationOrder ZYX
CalibrationUnits mm
RotationUnits Degrees
GlobalAxisofGravity Y
BoneLengthAxis Y
ScaleFactor 1.00
[SegmentNames&Hierarchy]
#CHILD	PARENT
Pinger_Root GLOBAL
Pelvis Pinger_Root
L_Hip Pelvis
R_Hip Pelvis
Rear_Leg01 Pelvis
Spine1 Pelvis
L_Leg01 L_Hip
L_Leg02 L_Leg01
L_Leg03 L_Leg02
L_Foot L_Leg03
L_Toe1_01 L_Foot
L_Toe2_01 L_Foot
L_Toe3_01 L_Foot
planeAlignerLeft L_Foot
L_Toe1_02 L_Toe1_01
L_Toe1_03 L_Toe1_02
L_Toe2_02 L_Toe2_01
L_Toe2_03 L_Toe2_02
L_Toe3_02 L_Toe3_01
L_Toe3_03 L_Toe3_02
planeLockWeightLeft planeAlignerLeft
R_Leg01 R_Hip
R_Leg02 R_Leg01
R_Leg03 R_Leg02
R_Foot R_Leg03
planeAlignerRight R_Foot
R_Toe1_01 R_Foot
R_Toe2_01 R_Foot
R_Toe3_01 R_Foot
planeLockWeightRight planeAlignerRight
R_Toe1_02 R_Toe1_01
R_Toe1_03 R_Toe1_02
R_Toe2_02 R_Toe2_01
R_Toe2_03 R_Toe2_02
R_Toe3_02 R_Toe3_01
R_Toe3_03 R_Toe3_02
Rear_Leg02 Rear_Leg01
Rear_Leg03 Rear_Leg02
Rear_Leg04 Rear_Leg03
Rear_Foot Rear_Leg04
planeAlignerCenter Rear_Foot
Rear_Toe1_01 Rear_Foot
Rear_Toe2_01 Rear_Foot
Rear_Toe3_01 Rear_Foot
planeLockWeightCenter planeAlignerCenter
Rear_Toe1_02 Rear_Toe1_01
Rear_Toe1_03 Rear_Toe1_02
Rear_Toe2_02 Rear_Toe2_01
Rear_Toe2_03 Rear_Toe2_02
Rear_Toe3_02 Rear_Toe3_01
Rear_Toe3_03 Rear_Toe3_02
Back_Bone Spine1
Head Spine1
Motor_Bone Back_Bone
Ping_Mechanism Back_Bone
BN_LookIK Head
bottomMouth Head
L_Mouth01 Head
L_mouthFront Head
mouthGun Head
R_Mouth01 Head
R_mouthFront Head
TopMouth Head
weapon_bone Head
[BasePosition]
#SegmentName Tx, Ty, Tz, Rx, Ry, Rz, BoneLength
Pinger_Root 0.000000 0.000000 0.000000 -90.000000 0.000000 0.000000 10.000000 
Pelvis 0.000000 0.000000 0.000000 0.000000 0.000000 0.000000 10.000000 
L_Hip 0.000000 0.000000 0.000000 0.000000 0.000000 0.000000 10.000000 
R_Hip 0.000000 0.000000 0.000000 0.000000 0.000000 0.000000 10.000000 
Rear_Leg01 0.000000 0.000000 0.000000 0.000000 0.000000 0.000000 10.000000 
Spine1 0.000000 0.000000 0.000000 0.000000 0.000000 0.000000 10.000000 
L_Leg01 0.000000 0.000000 0.000000 0.000000 0.000000 0.000000 10.000000 
L_Leg02 0.000000 0.000000 0.000000 0.000000 0.000000 0.000000 10.000000 
L_Leg03 0.000000 0.000000 0.000000 0.000000 0.000000 0.000000 10.000000 
L_Foot 0.000000 0.000000 0.000000 0.000000 0.000000 0.000000 10.000000 
L_Toe1_01 0.000000 0.000000 0.000000 0.000000 0.000000 0.000000 10.000000 
L_Toe2_01 0.000000 0.000000 0.000000 0.000000 0.000000 0.000000 10.000000 
L_Toe3_01 0.000000 0.000000 0.000000 0.000000 0.000000 0.000000 10.000000 
planeAlignerLeft 0.000000 0.000000 0.000000 0.000000 0.000000 0.000000 10.000000 
L_Toe1_02 0.000000 0.000000 0.000000 0.000000 0.000000 0.000000 10.000000 
L_Toe1_03 0.000000 0.000000 0.000000 0.000000 0.000000 0.000000 10.000000 
L_Toe2_02 0.000000 0.000000 0.000000 0.000000 0.000000 0.000000 10.000000 
L_Toe2_03 0.000000 0.000000 0.000000 0.000000 0.000000 0.000000 10.000000 
L_Toe3_02 0.000000 0.000000 0.000000 0.000000 0.000000 0.000000 10.000000 
L_Toe3_03 0.000000 0.000000 0.000000 0.000000 0.000000 0.000000 10.000000 
planeLockWeightLeft 0.000000 0.000000 0.000000 0.000000 0.000000 0.000000 10.000000 
R_Leg01 0.000000 0.000000 0.000000 0.000000 0.000000 0.000000 10.000000 
R_Leg02 0.000000 0.000000 0.000000 0.000000 0.000000 0.000000 10.000000 
R_Leg03 0.000000 0.000000 0.000000 0.000000 0.000000 0.000000 10.000000 
R_Foot 0.000000 0.000000 0.000000 0.000000 0.000000 0.000000 10.000000 
planeAlignerRight 0.000000 0.000000 0.000000 0.000000 0.000000 0.000000 10.000000 
R_Toe1_01 0.000000 0.000000 0.000000 0.000000 0.000000 0.000000 10.000000 
R_Toe2_01 0.000000 0.000000 0.000000 0.000000 0.000000 0.000000 10.000000 
R_Toe3_01 0.000000 0.000000 0.000000 0.000000 0.000000 0.000000 10.000000 
planeLockWeightRight 0.000000 0.000000 0.000000 0.000000 0.000000 0.000000 10.000000 
R_Toe1_02 0.000000 0.000000 0.000000 0.000000 0.000000 0.000000 10.000000 
R_Toe1_03 0.000000 0.000000 0.000000 0.000000 0.000000 0.000000 10.000000 
R_Toe2_02 0.000000 0.000000 0.000000 0.000000 0.000000 0.000000 10.000000 
R_Toe2_03 0.000000 0.000000 0.000000 0.000000 0.000000 0.000000 10.000000 
R_Toe3_02 0.000000 0.000000 0.000000 0.000000 0.000000 0.000000 10.000000 
R_Toe3_03 0.000000 0.000000 0.000000 0.000000 0.000000 0.000000 10.000000 
Rear_Leg02 0.000000 0.000000 0.000000 0.000000 0.000000 0.000000 10.000000 
Rear_Leg03 0.000000 0.000000 0.000000 0.000000 0.000000 0.000000 10.000000 
Rear_Leg04 0.000000 0.000000 0.000000 0.000000 0.000000 0.000000 10.000000 
Rear_Foot 0.000000 0.000000 0.000000 0.000000 0.000000 0.000000 10.000000 
planeAlignerCenter 0.000000 0.000000 0.000000 0.000000 0.000000 0.000000 10.000000 
Rear_Toe1_01 0.000000 0.000000 0.000000 0.000000 0.000000 0.000000 10.000000 
Rear_Toe2_01 0.000000 0.000000 0.000000 0.000000 0.000000 0.000000 10.000000 
Rear_Toe3_01 0.000000 0.000000 0.000000 0.000000 0.000000 0.000000 10.000000 
planeLockWeightCenter 0.000000 0.000000 0.000000 0.000000 0.000000 0.000000 10.000000 
Rear_Toe1_02 0.000000 0.000000 0.000000 0.000000 0.000000 0.000000 10.000000 
Rear_Toe1_03 0.000000 0.000000 0.000000 0.000000 0.000000 0.000000 10.000000 
Rear_Toe2_02 0.000000 0.000000 0.000000 0.000000 0.000000 0.000000 10.000000 
Rear_Toe2_03 0.000000 0.000000 0.000000 0.000000 0.000000 0.000000 10.000000 
Rear_Toe3_02 0.000000 0.000000 0.000000 0.000000 0.000000 0.000000 10.000000 
Rear_Toe3_03 0.000000 0.000000 0.000000 0.000000 0.000000 0.000000 10.000000 
Back_Bone 0.000000 0.000000 0.000000 0.000000 0.000000 0.000000 10.000000 
Head 0.000000 0.000000 0.000000 0.000000 0.000000 0.000000 10.000000 
Motor_Bone 0.000000 0.000000 0.000000 0.000000 0.000000 0.000000 10.000000 
Ping_Mechanism 0.000000 0.000000 0.000000 0.000000 0.000000 0.000000 10.000000 
BN_LookIK 0.000000 0.000000 0.000000 0.000000 0.000000 0.000000 10.000000 
bottomMouth 0.000000 0.000000 0.000000 0.000000 0.000000 0.000000 10.000000 
L_Mouth01 0.000000 0.000000 0.000000 0.000000 0.000000 0.000000 10.000000 
L_mouthFront 0.000000 0.000000 0.000000 0.000000 0.000000 0.000000 10.000000 
mouthGun 0.000000 0.000000 0.000000 0.000000 0.000000 0.000000 10.000000 
R_Mouth01 0.000000 0.000000 0.000000 0.000000 0.000000 0.000000 10.000000 
R_mouthFront 0.000000 0.000000 0.000000 0.000000 0.000000 0.000000 10.000000 
TopMouth 0.000000 0.000000 0.000000 0.000000 0.000000 0.000000 10.000000 
weapon_bone 0.000000 0.000000 0.000000 0.000000 0.000000 0.000000 10.000000 
#Beginning of Data. Separated by tabs
#Fr	Tx	Ty	Tz	Rx	Ry	Rz	SF
[Pinger_Root]
49 0.000000 0.000000 0.000000 -0.000075 -0.000000 -0.000020 0.000000
50 0.000000 0.000000 0.000000 -0.000075 -0.000000 -0.000020 0.000000
51 0.000000 0.000000 0.000000 -0.000075 -0.000000 -0.000020 0.000000
[Pelvis]
49 609.888611 1209.114990 4603.539063 1.404322 -76.848221 -19.165949 4798.592773
50 601.416260 1219.960571 4637.831055 -17.652033 -75.844032 2.200800 4833.165039
51 588.601501 1230.866211 4686.179688 -33.598328 -73.470039 20.717541 4880.754395
[L_Hip]
49 5.766392 125.831482 872.656799 -178.253296 -81.787758 87.381302 881.701050
50 5.766392 125.831482 872.656799 -178.253296 -81.787758 87.381294 881.701050
51 5.766392 125.831482 872.656799 -178.253342 -81.787613 87.381248 881.701050
[R_Hip]
49 5.765438 125.836372 -872.654907 -1.738083 81.786041 87.376640 881.699829
50 5.765438 125.836372 -872.654907 -1.737844 81.785919 87.376442 881.699829
51 5.765438 125.836372 -872.654907 -1.737607 81.785851 87.376335 881.699829
[Rear_Leg01]
49 -192.298416 -925.602966 -0.001907 136.430161 24.780912 -148.239899 945.367432
50 -192.298416 -925.602966 -0.001907 138.317322 24.409048 -152.588745 945.367432
51 -192.298416 -925.602966 -0.001907 140.327316 23.817537 -157.161224 945.367432
[Spine1]
49 290.604584 5.007505 0.000477 9.402144 -18.817255 22.378826 290.647736
50 290.604584 5.007505 0.000477 7.718874 -18.471064 17.784199 290.647736
51 290.604584 5.007505 0.000477 6.038426 -17.940214 12.808206 290.647736
[L_Leg01]
49 761.932007 -0.002384 -0.069261 92.183540 -35.074547 -90.566277 761.932068
50 761.932007 -0.002384 -0.069261 92.794273 -31.772692 -91.960350 761.932068
51 761.932007 -0.002384 -0.069261 94.255768 -25.274458 -93.351814 761.932068
[L_Leg02]
49 1441.140503 -0.000954 -0.000715 0.655435 -0.130474 -126.876663 1441.140503
50 1441.140503 -0.000954 -0.000715 -0.465017 0.167957 -115.635391 1441.140503
51 1441.140503 -0.000954 -0.000715 -1.497055 0.490975 -95.383369 1441.140503
[L_Leg03]
49 1686.963989 -0.000715 -0.000954 0.019212 -0.006032 104.860703 1686.963989
50 1686.963989 -0.000715 -0.000954 0.019175 -0.006149 105.557899 1686.963989
51 1686.963989 -0.000715 -0.000954 0.029412 -0.010159 102.133636 1686.963989
[L_Foot]
49 3041.570068 -30.715107 11.297464 -4.349367 9.747939 82.621521 3041.746094
50 3041.570068 -30.715107 11.297464 -0.807473 9.038995 81.195953 3041.746094
51 3041.570068 -30.715107 11.297464 2.158109 8.228299 77.703667 3041.746094
[L_Toe1_01]
49 -188.216690 -224.732346 -21.137953 95.346214 -8.047131 -142.301590 293.899567
50 -188.216690 -224.732346 -21.137953 99.003235 -8.199287 -156.039154 293.899567
51 -188.216690 -224.732346 -21.137953 102.668510 -5.100628 -176.965363 293.899567
[L_Toe2_01]
49 200.746536 -219.926590 148.838394 -74.118591 -15.646272 -77.857788 332.896027
50 200.746536 -219.926590 148.838394 -78.252884 -20.627321 -68.038834 332.896027
51 200.746536 -219.926590 148.838394 -86.696190 -23.830967 -49.711716 332.896027
[L_Toe3_01]
49 188.832520 -219.859131 -191.078659 -113.205254 0.533164 -86.014786 347.140900
50 188.832520 -219.859131 -191.078659 -114.525246 3.719425 -78.709297 347.140900
51 188.832520 -219.859131 -191.078659 -115.263840 11.402077 -62.858711 347.140900
[planeAlignerLeft]
49 0.812531 -811.448792 -0.314951 0.000000 -90.000000 -90.001900 811.449280
50 0.812531 -811.448792 -0.314951 0.000000 -90.000000 -90.001900 811.449280
51 0.812531 -811.448792 -0.314951 0.000000 -90.000000 -90.001900 811.449280
[L_Toe1_02]
49 413.761139 0.000477 0.000000 0.001390 -25.257196 0.001390 413.761139
50 413.761139 0.000477 0.000000 0.001384 -25.946936 0.001384 413.761139
51 413.761139 0.000477 0.000000 0.001393 -24.825237 0.001393 413.761139
[L_Toe1_03]
49 464.317322 0.000358 -0.000089 0.002905 42.339005 0.002905 464.317322
50 464.317322 0.000358 -0.000089 0.003449 50.209072 0.003449 464.317322
51 464.317322 0.000358 -0.000089 0.006251 68.357376 0.006251 464.317322
[L_Toe2_02]
49 342.235809 -0.000477 0.000238 -0.002382 -64.469681 -0.002382 342.235809
50 342.235809 -0.000477 0.000238 0.001194 -68.958221 0.001194 342.235809
51 342.235809 -0.000477 0.000238 0.001185 -74.078064 0.001185 342.235809
[L_Toe2_03]
49 420.210846 -0.000715 0.000000 -0.001304 68.518829 -0.004863 420.210846
50 420.210846 -0.000715 0.000000 0.010623 77.314270 0.010623 420.210846
51 420.210846 -0.000715 0.000000 0.000000 89.955765 0.003496 420.210846
[L_Toe3_02]
49 329.270111 0.000954 0.000000 -0.011325 -71.266151 0.010160 329.270111
50 329.270111 0.000954 0.000000 -0.007016 -76.266441 0.007620 329.270111
51 329.270111 0.000954 0.000000 0.001177 -81.266548 0.001177 329.270111
[L_Toe3_03]
49 439.137451 -0.001907 0.000954 -0.002979 76.071953 -0.006502 439.137451
50 439.137451 -0.001907 0.000954 -0.029784 87.650558 -0.026287 439.137451
51 439.137451 -0.001907 0.000954 -179.997269 75.357780 -179.993729 439.137451
[planeLockWeightLeft]
49 -0.000954 0.000238 -0.000305 -0.011826 -0.004376 0.005620 0.001029
50 -0.000954 0.000238 -0.000305 -0.011826 -0.004376 0.005620 0.001029
51 -0.000954 0.000238 -0.000305 -0.011826 -0.004376 0.005620 0.001029
[R_Leg01]
49 761.455627 -0.001907 -0.000358 78.931786 -32.311237 64.376541 761.455688
50 761.455627 -0.001907 -0.000358 80.765167 -34.189579 62.248447 761.455688
51 761.455627 -0.001907 -0.000358 83.331314 -35.734795 59.726871 761.455688
[R_Leg02]
49 1441.140625 0.000000 -0.000238 -0.356955 0.010380 -140.630463 1441.140625
50 1441.140625 0.000000 -0.000238 -0.363249 0.008623 -140.241516 1441.140625
51 1441.140625 0.000000 -0.000238 -0.350970 0.002834 -138.966217 1441.140625
[R_Leg03]
49 1686.963989 0.000954 0.001431 -0.011512 0.001721 107.004364 1686.963989
50 1686.963989 0.000954 0.001431 -0.008046 0.001255 107.733070 1686.963989
51 1686.963989 0.000954 0.001431 -0.004586 0.000745 108.461777 1686.963989
[R_Foot]
49 3041.560059 -30.531288 -11.204481 37.854267 -57.936485 57.386295 3041.734131
50 3041.560059 -30.531288 -11.204481 40.173481 -60.052200 55.786827 3041.734131
51 3041.560059 -30.531288 -11.204481 42.788212 -62.046894 53.620361 3041.734131
[planeAlignerRight]
49 -0.635147 -812.270569 -0.364304 0.000000 -89.960434 -90.005180 812.270874
50 -0.635147 -812.270569 -0.364304 0.000000 -89.960434 -90.005180 812.270874
51 -0.635147 -812.270569 -0.364304 0.000000 -89.960434 -90.005180 812.270874
[R_Toe1_01]
49 -188.383347 -224.864899 21.052242 90.801651 0.734179 -165.603043 294.101532
50 -188.383347 -224.864899 21.052242 90.961014 0.138140 -162.863785 294.101532
51 -188.383347 -224.864899 21.052242 91.075630 -0.609549 -159.593048 294.101532
[R_Toe2_01]
49 200.637817 -220.002121 -148.787384 -101.739784 10.336226 -45.233746 332.857574
50 200.637817 -220.002121 -148.787384 -102.052269 9.724016 -46.986176 332.857574
51 200.637817 -220.002121 -148.787384 -102.380989 8.918227 -48.860081 332.857574
[R_Toe3_01]
49 188.606735 -220.092957 191.126343 -73.611679 -15.923612 -47.909119 347.192566
50 188.606735 -220.092957 191.126343 -72.769348 -16.291334 -50.115768 347.192566
51 188.606735 -220.092957 191.126343 -71.819992 -16.959105 -52.505562 347.192566
[planeLockWeightRight]
49 -0.000477 0.000000 0.000000 -0.011823 -0.004379 -0.000027 0.000477
50 -0.000477 0.000000 0.000000 -0.011823 -0.004379 -0.000027 0.000477
51 -0.000477 0.000000 0.000000 -0.011823 -0.004379 -0.000027 0.000477
[R_Toe1_02]
49 413.762085 0.000477 -0.000119 0.001423 -21.162325 0.001423 413.762085
50 413.762085 0.000477 -0.000119 0.001413 -22.387075 0.001413 413.762085
51 413.762085 0.000477 -0.000119 0.001403 -23.611956 0.001403 413.762085
[R_Toe1_03]
49 464.317810 0.000000 0.001088 -0.019111 86.205894 -0.015612 464.317810
50 464.317810 0.000000 0.001088 0.016107 81.642921 0.016107 464.317810
51 464.317810 0.000000 0.001088 0.009325 75.539078 0.009325 464.317810
[R_Toe2_02]
49 342.234741 -0.000954 0.000238 -0.002340 -76.143074 -0.002340 342.234741
50 342.234741 -0.000954 0.000238 -0.002340 -76.293922 -0.002340 342.234741
51 342.234741 -0.000954 0.000238 -0.002339 -76.647415 -0.002339 342.234741
[R_Toe2_03]
49 420.210846 0.000715 -0.000268 -179.988937 82.923546 -179.992432 420.210846
50 420.210846 0.000715 -0.000268 -179.989624 82.357201 -179.993134 420.210846
51 420.210846 0.000715 -0.000268 -179.990875 81.043076 -179.994400 420.210846
[R_Toe3_02]
49 329.270355 -0.000477 -0.000954 0.001179 -79.319054 0.001179 329.270355
50 329.270355 -0.000477 -0.000954 0.001179 -79.239952 0.001179 329.270355
51 329.270355 -0.000477 -0.000954 0.001179 -79.160805 0.001179 329.270355
[R_Toe3_03]
49 439.137939 0.000238 0.001431 -179.992554 82.837708 -179.989044 439.137939
50 439.137939 0.000238 0.001431 -179.991776 83.399574 -179.988266 439.137939
51 439.137939 0.000238 0.001431 -179.991623 83.499046 -179.988113 439.137939
[Rear_Leg02]
49 1162.777710 -0.029802 0.005960 0.680740 -1.207621 -117.498077 1162.777710
50 1162.777710 -0.029802 0.005960 1.059826 -2.334935 -111.684616 1162.777710
51 1162.777710 -0.029802 0.005960 1.168705 -3.406165 -104.781090 1162.777710
[Rear_Leg03]
49 607.192505 -0.013351 -0.073195 0.010388 -0.005314 70.535599 607.192505
50 607.192505 -0.013351 -0.073195 0.010451 -0.005189 69.166298 607.192505
51 607.192505 -0.013351 -0.073195 0.010531 -0.005024 67.361870 607.192505
[Rear_Leg04]
49 995.874512 -0.020504 -0.011921 -0.040891 -0.017232 71.660164 995.874573
50 995.874512 -0.020504 -0.011921 -0.040399 -0.018357 68.488884 995.874573
51 995.874512 -0.020504 -0.011921 -0.039737 -0.019748 64.508675 995.874573
[Rear_Foot]
49 3096.176270 -0.067472 -0.041425 -175.208160 75.096786 8.614926 3096.176270
50 3096.176270 -0.067472 -0.041425 -171.179749 74.599556 11.434259 3096.176270
51 3096.176270 -0.067472 -0.041425 -167.812683 74.202782 13.736138 3096.176270
[planeAlignerCenter]
49 0.350077 0.966311 -838.790894 0.000009 0.000003 -179.999985 838.791565
50 0.350077 0.966311 -838.790894 0.000009 0.000003 -179.999985 838.791565
51 0.350077 0.966311 -838.790894 0.000009 0.000003 -179.999985 838.791565
[Rear_Toe1_01]
49 0.653352 83.966492 -371.173737 2.418796 12.624186 98.046402 380.553192
50 0.653352 83.966492 -371.173737 2.368987 12.612044 97.870583 380.553192
51 0.653352 83.966492 -371.173737 2.319221 12.599751 97.694748 380.553192
[Rear_Toe2_01]
49 178.200760 -294.826019 -362.060547 -3.998516 39.042480 -82.325272 499.765686
50 178.200760 -294.826019 -362.060547 -3.907578 39.072105 -82.086227 499.765686
51 178.200760 -294.826019 -362.060547 -3.816448 39.101440 -81.847023 499.765686
[Rear_Toe3_01]
49 -153.359680 -308.780914 -362.060852 -3.475223 39.813694 -120.225975 499.952881
50 -153.359680 -308.780914 -362.060852 -3.407041 39.825588 -120.017242 499.952881
51 -153.359680 -308.780914 -362.060852 -3.338792 39.837307 -119.808487 499.952881
[planeLockWeightCenter]
49 -0.000062 0.000238 0.000000 -0.011814 -0.004373 -0.000015 0.000246
50 -0.000062 0.000238 0.000000 -0.011814 -0.004373 -0.000015 0.000246
51 -0.000062 0.000238 0.000000 -0.011814 -0.004373 -0.000015 0.000246
[Rear_Toe1_02]
49 379.707825 0.194073 0.000477 -0.002644 -32.979671 -0.002644 379.707855
50 379.707825 0.194073 0.000477 -0.002644 -32.972652 -0.002644 379.707855
51 379.707825 0.194073 0.000477 -0.002644 -32.965641 -0.002644 379.707855
[Rear_Toe1_03]
49 500.129700 0.165701 0.000119 -0.031630 88.026825 -0.035127 500.129761
50 500.129700 0.165701 0.000119 -0.033836 88.148918 -0.037333 500.129761
51 500.129700 0.165701 0.000119 -0.036354 88.271385 -0.039851 500.129761
[Rear_Toe2_02]
49 340.494507 0.000238 -0.000954 -0.000257 -86.754478 -0.000257 340.494507
50 340.494507 0.000238 -0.000954 -0.000098 -86.704254 -0.000098 340.494507
51 340.494507 0.000238 -0.000954 0.000061 -86.654022 0.000061 340.494507
[Rear_Toe2_03]
49 433.103577 0.000000 0.000238 -179.994019 76.306656 -179.997421 433.103546
50 433.103577 0.000000 0.000238 -179.994598 76.472275 -179.997849 433.103546
51 433.103577 0.000000 0.000238 -179.995178 76.637939 -179.998306 433.103546
[Rear_Toe3_02]
49 340.494141 -0.000358 -0.000477 0.001178 -80.036934 0.001178 340.494171
50 340.494141 -0.000358 -0.000477 0.001178 -80.150345 0.001178 340.494171
51 340.494141 -0.000358 -0.000477 0.001178 -80.242889 0.001178 340.494171
[Rear_Toe3_03]
49 433.103577 0.001431 -0.000238 -0.030239 87.688019 -0.026742 433.103546
50 433.103577 0.001431 -0.000238 -0.032790 87.877815 -0.029292 433.103546
51 433.103577 0.001431 -0.000238 -0.035841 88.067810 -0.032344 433.103546
[Back_Bone]
49 1312.175781 -701.934692 0.000954 1.888476 3.184119 -81.520088 1488.125488
50 1312.175781 -701.934692 0.000954 1.558556 3.182085 -81.154915 1488.125488
51 1312.175781 -701.934692 0.000954 1.228626 3.182150 -80.789703 1488.125488
[Head]
49 1406.159424 809.709290 0.001431 2.747061 7.303142 20.911810 1622.625488
50 1406.159424 809.709290 0.001431 2.501075 8.324976 22.189489 1622.625488
51 1406.159424 809.709290 0.001431 2.277555 9.351982 23.466255 1622.625488
[Motor_Bone]
49 1158.364380 -417.834747 0.000477 -3.495531 0.584002 -105.401474 1231.419434
50 1158.364380 -417.834747 0.000477 0.251871 -0.541813 -106.527908 1231.419434
51 1158.364380 -417.834747 0.000477 2.270578 -1.149517 -107.133400 1231.419434
[Ping_Mechanism]
49 1199.002075 -413.847687 63.179127 0.000103 -0.000053 82.120995 1269.987183
50 1220.722534 -425.055634 72.267509 0.000103 -0.000053 82.120995 1294.626709
51 1244.926636 -435.925964 79.107964 0.000103 -0.000053 82.120995 1321.412842
[BN_LookIK]
49 193.241119 1380.371704 -0.002861 0.000000 89.965736 -31.038179 1393.832153
50 193.241119 1380.371704 -0.002861 0.000000 89.965736 -31.038179 1393.832153
51 193.241119 1380.371704 -0.002861 0.000000 89.965736 -31.038179 1393.832153
[bottomMouth]
49 -435.092926 615.759399 -0.000954 -0.000022 0.000016 73.527184 753.966492
50 -435.092926 615.759399 -0.000954 -0.000022 0.000016 73.527184 753.966492
51 -435.092926 615.759399 -0.000954 -0.000022 0.000016 73.527184 753.966492
[L_Mouth01]
49 554.440979 7.658243 838.222046 150.204178 23.759130 109.605339 1005.027161
50 554.440979 7.658243 838.222046 150.204178 23.759130 109.605339 1005.027161
51 554.440979 7.658243 838.222046 150.204178 23.759130 109.605339 1005.027161
[L_mouthFront]
49 551.629089 934.514771 339.150421 0.000081 2.804060 79.119301 1136.941284
50 551.629089 934.514771 339.150421 0.000081 2.804060 79.119301 1136.941284
51 551.629089 934.514771 339.150421 0.000081 2.804060 79.119301 1136.941284
[mouthGun]
49 55.332661 1627.420898 0.000000 0.000023 0.000009 -11.038128 1628.361328
50 55.332661 1627.420898 0.000000 0.000023 0.000009 -11.038128 1628.361328
51 55.332661 1627.420898 0.000000 0.000023 0.000009 -11.038128 1628.361328
[R_Mouth01]
49 554.442383 7.659197 -838.223938 29.795891 -23.759109 109.605331 1005.029541
50 554.442383 7.659197 -838.223938 29.795891 -23.759109 109.605331 1005.029541
51 554.442383 7.659197 -838.223938 29.795891 -23.759109 109.605331 1005.029541
[R_mouthFront]
49 551.629089 934.514282 -339.151367 0.000029 -2.803930 79.119133 1136.941162
50 551.629089 934.514282 -339.151367 0.000029 -2.803930 79.119133 1136.941162
51 551.629089 934.514282 -339.151367 0.000029 -2.803930 79.119133 1136.941162
[TopMouth]
49 461.269867 -56.106091 -0.008583 -0.000059 -0.000268 92.025169 464.669525
50 461.269867 -56.106091 -0.008583 -0.000059 -0.000268 92.025169 464.669525
51 461.269867 -56.106091 -0.008583 -0.000059 -0.000268 92.025169 464.669525
[weapon_bone]
49 -987.239868 1448.372803 0.001431 0.000000 89.965736 -31.038221 1752.833740
50 -987.239868 1448.372803 0.001431 0.000000 89.965736 -31.038221 1752.833740
51 -987.239868 1448.372803 0.001431 0.000000 89.965736 -31.038221 1752.833740
